# xmcd
#
# Track frame offsets: 
#        150
#        11381
#        28728
#        43905
#        59149
#        76574
#        94169
#        107649
#        131860
#        147616
#        178282
#        193667
#        205359
#
# Disc length: 2932 seconds
#
# Revision: 0
# Processed by: cddbd v1.5.2PL0 Copyright (c) Steve Scherf et al.
# Submitted via: ExactAudioCopy v1.0b4
#
DISCID=c20b720d
DTITLE=Andy Santana And The West Coast Playboys - Watch Your Step
DYEAR=2015
DGENRE=Blues
TTITLE0=Knock Knock
TTITLE1=Watch Your Step
TTITLE2=Playgirl
TTITLE3=One Way Love Affair
TTITLE4=Love Sickness
TTITLE5=You May Not Know
TTITLE6=No Double Talk
TTITLE7=Can't You See
TTITLE8=Take Me Back
TTITLE9=Greaseland
TTITLE10=You Smell Like Cookies
TTITLE11=What's Wrong
TTITLE12=Go On Fool
EXTD=
EXTT0=
EXTT1=
EXTT2=
EXTT3=
EXTT4=
EXTT5=
EXTT6=
EXTT7=
EXTT8=
EXTT9=
EXTT10=
EXTT11=
EXTT12=
PLAYORDER=
